# MagicaVoxel @ Ephtracy

# group
o 

# material
mtllib Ghost2.mtl
usemtl palette

# normals
vn -1 0 0
vn 1 0 0
vn 0 0 1
vn 0 0 -1
vn 0 -1 0
vn 0 1 0

# texcoords
vt 0.0214844 0.5
vt 0.958984 0.5
vt 0.994141 0.5

# verts
v -2 1.6 -1.7
v -2 1.6 -2.1
v -2 2 -0.5
v -2 2 -1.7
v -2 2.8 -0.5
v -2 2.8 -2.1
v -1.6 0 1.1
v -1.6 0 0.7
v -1.6 0 0.3
v -1.6 0 -0.5
v -1.6 0 -0.9
v -1.6 0 -1.3
v -1.6 0.4 0.7
v -1.6 0.4 0.3
v -1.6 0.4 -0.5
v -1.6 0.4 -0.9
v -1.6 2 -0.5
v -1.6 2 -1.3
v -1.6 2.8 -0.5
v -1.6 2.8 -1.3
v -1.6 3.6 1.1
v -1.6 3.6 -1.3
v -1.2 3.6 1.1
v -1.2 3.6 -1.3
v -1.2 4 1.1
v -1.2 4 -1.3
v -0.8 4 0.7
v -0.8 4 -0.9
v -0.8 4.4 0.7
v -0.8 4.4 -0.9
v -0.4 0 1.1
v -0.4 0 0.7
v -0.4 0 -0.1
v -0.4 0 -0.5
v -0.4 0 -0.9
v -0.4 0 -1.3
v -0.4 0.4 1.1
v -0.4 0.4 0.7
v -0.4 0.4 0.3
v -0.4 0.4 -0.1
v -0.4 0.4 -0.5
v -0.4 0.4 -0.9
v -0.4 0.4 -1.3
v -0.4 0.8 0.7
v -0.4 0.8 0.3
v -0.4 0.8 -0.5
v -0.4 0.8 -0.9
v -0.4 1.6 -0.9
v -0.4 1.6 -1.3
v -0.4 2 -0.9
v -0.4 2 -1.3
v -0.4 2.8 -0.9
v -0.4 2.8 -1.3
v -0.4 3.2 -0.9
v -0.4 3.2 -1.3
v -0.4 4 1.1
v -0.4 4 0.7
v -0.4 4 -0.9
v -0.4 4 -1.3
v -0.4 4.4 1.1
v -0.4 4.4 0.7
v -0.4 4.4 -0.9
v -0.4 4.4 -1.3
v 0.8 0 1.1
v 0.8 0 0.7
v 0.8 0 0.3
v 0.8 0 -0.5
v 0.8 0 -0.9
v 0.8 0 -1.3
v 0.8 0.4 1.1
v 0.8 0.4 0.7
v 0.8 0.4 0.3
v 0.8 0.4 -0.5
v 0.8 0.4 -0.9
v 0.8 0.4 -1.3
v 0.8 1.6 -0.9
v 0.8 1.6 -1.3
v 0.8 2.4 -0.9
v 0.8 2.4 -1.3
v 0.8 2.8 -0.9
v 0.8 2.8 -1.3
v 0.8 3.2 -0.9
v 0.8 3.2 -1.3
v 1.2 0.4 0.7
v 1.2 0.4 0.3
v 1.2 0.4 -0.5
v 1.2 0.4 -0.9
v 1.2 0.8 0.7
v 1.2 0.8 0.3
v 1.2 0.8 -0.5
v 1.2 0.8 -0.9
v 1.6 1.6 -1.7
v 1.6 1.6 -2.1
v 1.6 2 -1.3
v 1.6 2 -1.7
v 1.6 2.8 -1.3
v 1.6 2.8 -2.1
v -1.6 1.6 -1.7
v -1.6 1.6 -2.1
v -1.6 2 -1.3
v -1.6 2 -1.7
v -1.6 2.8 -1.3
v -1.6 2.8 -2.1
v -1.2 0.4 0.7
v -1.2 0.4 0.3
v -1.2 0.4 -0.5
v -1.2 0.4 -0.9
v -1.2 0.8 0.7
v -1.2 0.8 0.3
v -1.2 0.8 -0.5
v -1.2 0.8 -0.9
v -0.8 0 1.1
v -0.8 0 0.7
v -0.8 0 -0.1
v -0.8 0 -0.5
v -0.8 0 -0.9
v -0.8 0 -1.3
v -0.8 0.4 1.1
v -0.8 0.4 0.7
v -0.8 0.4 -0.1
v -0.8 0.4 -0.5
v -0.8 0.4 -0.9
v -0.8 0.4 -1.3
v -0.8 1.6 -0.9
v -0.8 1.6 -1.3
v -0.8 2.4 -0.9
v -0.8 2.4 -1.3
v -0.8 2.8 -0.9
v -0.8 2.8 -1.3
v -0.8 3.2 -0.9
v -0.8 3.2 -1.3
v 2.38419e-007 1.6 -0.9
v 2.38419e-007 1.6 -1.3
v 2.38419e-007 2 -0.9
v 2.38419e-007 2 -1.3
v 0.4 0 1.1
v 0.4 0 0.7
v 0.4 0 0.3
v 0.4 0 -0.5
v 0.4 0 -0.9
v 0.4 0 -1.3
v 0.4 0.4 1.1
v 0.4 0.4 0.7
v 0.4 0.4 0.3
v 0.4 0.4 -0.5
v 0.4 0.4 -0.9
v 0.4 0.4 -1.3
v 0.4 0.8 0.7
v 0.4 0.8 0.3
v 0.4 0.8 -0.5
v 0.4 0.8 -0.9
v 0.4 2.8 -0.9
v 0.4 2.8 -1.3
v 0.4 3.2 -0.9
v 0.4 3.2 -1.3
v 0.4 4 1.1
v 0.4 4 0.7
v 0.4 4 -0.9
v 0.4 4 -1.3
v 0.4 4.4 1.1
v 0.4 4.4 0.7
v 0.4 4.4 -0.9
v 0.4 4.4 -1.3
v 0.8 4 0.7
v 0.8 4 -0.9
v 0.8 4.4 0.7
v 0.8 4.4 -0.9
v 1.2 3.6 1.1
v 1.2 3.6 -1.3
v 1.2 4 1.1
v 1.2 4 -1.3
v 1.6 0 1.1
v 1.6 0 0.7
v 1.6 0 0.3
v 1.6 0 -0.5
v 1.6 0 -0.9
v 1.6 0 -1.3
v 1.6 0.4 0.7
v 1.6 0.4 0.3
v 1.6 0.4 -0.5
v 1.6 0.4 -0.9
v 1.6 2 -0.5
v 1.6 2 -1.3
v 1.6 2.8 -0.5
v 1.6 2.8 -1.3
v 1.6 3.6 1.1
v 1.6 3.6 -1.3
v 2 1.6 -1.7
v 2 1.6 -2.1
v 2 2 -0.5
v 2 2 -1.7
v 2 2.8 -0.5
v 2 2.8 -2.1
v -1.6 0 1.1
v -1.6 3.6 1.1
v -1.2 3.6 1.1
v -1.2 4 1.1
v -0.8 0 1.1
v -0.8 0.4 1.1
v -0.4 0 1.1
v -0.4 0.4 1.1
v -0.4 4 1.1
v -0.4 4.4 1.1
v 0.4 0 1.1
v 0.4 0.4 1.1
v 0.4 4 1.1
v 0.4 4.4 1.1
v 0.8 0 1.1
v 0.8 0.4 1.1
v 1.2 3.6 1.1
v 1.2 4 1.1
v 1.6 0 1.1
v 1.6 3.6 1.1
v -0.8 4 0.7
v -0.8 4.4 0.7
v -0.4 4 0.7
v -0.4 4.4 0.7
v 0.4 4 0.7
v 0.4 4.4 0.7
v 0.8 4 0.7
v 0.8 4.4 0.7
v -1.6 0 0.3
v -1.6 0.4 0.3
v -1.2 0.4 0.3
v -1.2 0.8 0.3
v -0.4 0.4 0.3
v -0.4 0.8 0.3
v 0.4 0 0.3
v 0.4 0.4 0.3
v 0.4 0.8 0.3
v 0.8 0 0.3
v 0.8 0.4 0.3
v 1.2 0.4 0.3
v 1.2 0.8 0.3
v 1.6 0 0.3
v 1.6 0.4 0.3
v -2 2 -0.5
v -2 2.8 -0.5
v -1.6 2 -0.5
v -1.6 2.8 -0.5
v 1.6 2 -0.5
v 1.6 2.8 -0.5
v 2 2 -0.5
v 2 2.8 -0.5
v -1.6 0 -0.9
v -1.6 0.4 -0.9
v -1.2 0.4 -0.9
v -1.2 0.8 -0.9
v -0.8 0 -0.9
v -0.8 0.4 -0.9
v -0.4 0 -0.9
v -0.4 0.4 -0.9
v -0.4 0.8 -0.9
v 0.4 0 -0.9
v 0.4 0.4 -0.9
v 0.4 0.8 -0.9
v 0.8 0 -0.9
v 0.8 0.4 -0.9
v 1.2 0.4 -0.9
v 1.2 0.8 -0.9
v 1.6 0 -0.9
v 1.6 0.4 -0.9
v -2 1.6 -1.7
v -2 2 -1.7
v -1.6 1.6 -1.7
v -1.6 2 -1.7
v 1.6 1.6 -1.7
v 1.6 2 -1.7
v 2 1.6 -1.7
v 2 2 -1.7
v -1.6 0 0.7
v -1.6 0.4 0.7
v -1.2 0.4 0.7
v -1.2 0.8 0.7
v -0.8 0 0.7
v -0.8 0.4 0.7
v -0.4 0 0.7
v -0.4 0.4 0.7
v -0.4 0.8 0.7
v 0.4 0 0.7
v 0.4 0.4 0.7
v 0.4 0.8 0.7
v 0.8 0 0.7
v 0.8 0.4 0.7
v 1.2 0.4 0.7
v 1.2 0.8 0.7
v 1.6 0 0.7
v 1.6 0.4 0.7
v -0.8 0 -0.1
v -0.8 0.4 -0.1
v -0.4 0 -0.1
v -0.4 0.4 -0.1
v -1.6 0 -0.5
v -1.6 0.4 -0.5
v -1.2 0.4 -0.5
v -1.2 0.8 -0.5
v -0.8 0 -0.5
v -0.8 0.4 -0.5
v -0.4 0 -0.5
v -0.4 0.4 -0.5
v -0.4 0.8 -0.5
v 0.4 0 -0.5
v 0.4 0.4 -0.5
v 0.4 0.8 -0.5
v 0.8 0 -0.5
v 0.8 0.4 -0.5
v 1.2 0.4 -0.5
v 1.2 0.8 -0.5
v 1.6 0 -0.5
v 1.6 0.4 -0.5
v -0.8 1.6 -0.9
v -0.8 2.4 -0.9
v -0.8 2.8 -0.9
v -0.8 3.2 -0.9
v -0.8 4 -0.9
v -0.8 4.4 -0.9
v -0.4 1.6 -0.9
v -0.4 2 -0.9
v -0.4 2.8 -0.9
v -0.4 3.2 -0.9
v -0.4 4 -0.9
v -0.4 4.4 -0.9
v 2.38419e-007 1.6 -0.9
v 2.38419e-007 2 -0.9
v 0.4 2.8 -0.9
v 0.4 3.2 -0.9
v 0.4 4 -0.9
v 0.4 4.4 -0.9
v 0.8 1.6 -0.9
v 0.8 2.4 -0.9
v 0.8 2.8 -0.9
v 0.8 3.2 -0.9
v 0.8 4 -0.9
v 0.8 4.4 -0.9
v -1.6 0 -1.3
v -1.6 2 -1.3
v -1.6 2.8 -1.3
v -1.6 3.6 -1.3
v -1.2 3.6 -1.3
v -1.2 4 -1.3
v -0.8 0 -1.3
v -0.8 0.4 -1.3
v -0.8 1.6 -1.3
v -0.8 2.4 -1.3
v -0.8 2.8 -1.3
v -0.8 3.2 -1.3
v -0.4 0 -1.3
v -0.4 0.4 -1.3
v -0.4 1.6 -1.3
v -0.4 2 -1.3
v -0.4 2.8 -1.3
v -0.4 3.2 -1.3
v -0.4 4 -1.3
v -0.4 4.4 -1.3
v 2.38419e-007 1.6 -1.3
v 2.38419e-007 2 -1.3
v 0.4 0 -1.3
v 0.4 0.4 -1.3
v 0.4 2.8 -1.3
v 0.4 3.2 -1.3
v 0.4 4 -1.3
v 0.4 4.4 -1.3
v 0.8 0 -1.3
v 0.8 0.4 -1.3
v 0.8 1.6 -1.3
v 0.8 2.4 -1.3
v 0.8 2.8 -1.3
v 0.8 3.2 -1.3
v 1.2 3.6 -1.3
v 1.2 4 -1.3
v 1.6 0 -1.3
v 1.6 2 -1.3
v 1.6 2.8 -1.3
v 1.6 3.6 -1.3
v -2 1.6 -2.1
v -2 2.8 -2.1
v -1.6 1.6 -2.1
v -1.6 2.8 -2.1
v 1.6 1.6 -2.1
v 1.6 2.8 -2.1
v 2 1.6 -2.1
v 2 2.8 -2.1
v -1.6 0 1.1
v -0.8 0 1.1
v -0.4 0 1.1
v 0.4 0 1.1
v 0.8 0 1.1
v 1.6 0 1.1
v -1.6 0 0.7
v -0.8 0 0.7
v -0.4 0 0.7
v 0.4 0 0.7
v 0.8 0 0.7
v 1.6 0 0.7
v -1.6 0 0.3
v 0.4 0 0.3
v 0.8 0 0.3
v 1.6 0 0.3
v -0.8 0 -0.1
v -0.4 0 -0.1
v -1.6 0 -0.5
v -0.8 0 -0.5
v -0.4 0 -0.5
v 0.4 0 -0.5
v 0.8 0 -0.5
v 1.6 0 -0.5
v -1.6 0 -0.9
v -0.8 0 -0.9
v -0.4 0 -0.9
v 0.4 0 -0.9
v 0.8 0 -0.9
v 1.6 0 -0.9
v -1.6 0 -1.3
v -0.8 0 -1.3
v -0.4 0 -1.3
v 0.4 0 -1.3
v 0.8 0 -1.3
v 1.6 0 -1.3
v -0.8 0.4 1.1
v -0.4 0.4 1.1
v 0.4 0.4 1.1
v 0.8 0.4 1.1
v -1.6 0.4 0.7
v -1.2 0.4 0.7
v -0.8 0.4 0.7
v -0.4 0.4 0.7
v 0.4 0.4 0.7
v 0.8 0.4 0.7
v 1.2 0.4 0.7
v 1.6 0.4 0.7
v -1.6 0.4 0.3
v -1.2 0.4 0.3
v -0.4 0.4 0.3
v 0.4 0.4 0.3
v 0.8 0.4 0.3
v 1.2 0.4 0.3
v 1.6 0.4 0.3
v -0.8 0.4 -0.1
v -0.4 0.4 -0.1
v -1.6 0.4 -0.5
v -1.2 0.4 -0.5
v -0.8 0.4 -0.5
v -0.4 0.4 -0.5
v 0.4 0.4 -0.5
v 0.8 0.4 -0.5
v 1.2 0.4 -0.5
v 1.6 0.4 -0.5
v -1.6 0.4 -0.9
v -1.2 0.4 -0.9
v -0.8 0.4 -0.9
v -0.4 0.4 -0.9
v 0.4 0.4 -0.9
v 0.8 0.4 -0.9
v 1.2 0.4 -0.9
v 1.6 0.4 -0.9
v -0.8 0.4 -1.3
v -0.4 0.4 -1.3
v 0.4 0.4 -1.3
v 0.8 0.4 -1.3
v -1.2 0.8 0.7
v -0.4 0.8 0.7
v 0.4 0.8 0.7
v 1.2 0.8 0.7
v -1.2 0.8 0.3
v -0.4 0.8 0.3
v 0.4 0.8 0.3
v 1.2 0.8 0.3
v -1.2 0.8 -0.5
v -0.4 0.8 -0.5
v 0.4 0.8 -0.5
v 1.2 0.8 -0.5
v -1.2 0.8 -0.9
v -0.4 0.8 -0.9
v 0.4 0.8 -0.9
v 1.2 0.8 -0.9
v -2 1.6 -1.7
v -1.6 1.6 -1.7
v 1.6 1.6 -1.7
v 2 1.6 -1.7
v -2 1.6 -2.1
v -1.6 1.6 -2.1
v 1.6 1.6 -2.1
v 2 1.6 -2.1
v -2 2 -0.5
v -1.6 2 -0.5
v 1.6 2 -0.5
v 2 2 -0.5
v -1.6 2 -1.3
v 1.6 2 -1.3
v -2 2 -1.7
v -1.6 2 -1.7
v 1.6 2 -1.7
v 2 2 -1.7
v -0.8 2.4 -0.9
v 0.8 2.4 -0.9
v -0.8 2.4 -1.3
v 0.8 2.4 -1.3
v -0.8 3.2 -0.9
v -0.4 3.2 -0.9
v 0.4 3.2 -0.9
v 0.8 3.2 -0.9
v -0.8 3.2 -1.3
v -0.4 3.2 -1.3
v 0.4 3.2 -1.3
v 0.8 3.2 -1.3
v -0.8 1.6 -0.9
v -0.4 1.6 -0.9
v 2.38419e-007 1.6 -0.9
v 0.8 1.6 -0.9
v -0.8 1.6 -1.3
v -0.4 1.6 -1.3
v 2.38419e-007 1.6 -1.3
v 0.8 1.6 -1.3
v -0.4 2 -0.9
v 2.38419e-007 2 -0.9
v -0.4 2 -1.3
v 2.38419e-007 2 -1.3
v -2 2.8 -0.5
v -1.6 2.8 -0.5
v 1.6 2.8 -0.5
v 2 2.8 -0.5
v -0.8 2.8 -0.9
v -0.4 2.8 -0.9
v 0.4 2.8 -0.9
v 0.8 2.8 -0.9
v -1.6 2.8 -1.3
v -0.8 2.8 -1.3
v -0.4 2.8 -1.3
v 0.4 2.8 -1.3
v 0.8 2.8 -1.3
v 1.6 2.8 -1.3
v -2 2.8 -2.1
v -1.6 2.8 -2.1
v 1.6 2.8 -2.1
v 2 2.8 -2.1
v -1.6 3.6 1.1
v -1.2 3.6 1.1
v 1.2 3.6 1.1
v 1.6 3.6 1.1
v -1.6 3.6 -1.3
v -1.2 3.6 -1.3
v 1.2 3.6 -1.3
v 1.6 3.6 -1.3
v -1.2 4 1.1
v -0.4 4 1.1
v 0.4 4 1.1
v 1.2 4 1.1
v -0.8 4 0.7
v -0.4 4 0.7
v 0.4 4 0.7
v 0.8 4 0.7
v -0.8 4 -0.9
v -0.4 4 -0.9
v 0.4 4 -0.9
v 0.8 4 -0.9
v -1.2 4 -1.3
v -0.4 4 -1.3
v 0.4 4 -1.3
v 1.2 4 -1.3
v -0.4 4.4 1.1
v 0.4 4.4 1.1
v -0.8 4.4 0.7
v -0.4 4.4 0.7
v 0.4 4.4 0.7
v 0.8 4.4 0.7
v -0.8 4.4 -0.9
v -0.4 4.4 -0.9
v 0.4 4.4 -0.9
v 0.8 4.4 -0.9
v -0.4 4.4 -1.3
v 0.4 4.4 -1.3

# faces
f 4/2/1 2/2/1 1/2/1
f 5/2/1 4/2/1 3/2/1
f 6/2/1 2/2/1 4/2/1
f 6/2/1 4/2/1 5/2/1
f 13/2/1 8/2/1 7/2/1
f 14/2/1 10/2/1 9/2/1
f 15/2/1 10/2/1 14/2/1
f 16/2/1 12/2/1 11/2/1
f 17/2/1 15/2/1 14/2/1
f 17/2/1 16/2/1 15/2/1
f 17/2/1 14/2/1 13/2/1
f 18/2/1 12/2/1 16/2/1
f 18/2/1 16/2/1 17/2/1
f 19/2/1 17/2/1 13/2/1
f 21/2/1 13/2/1 7/2/1
f 21/2/1 20/2/1 19/2/1
f 21/2/1 19/2/1 13/2/1
f 22/2/1 20/2/1 21/2/1
f 25/2/1 24/2/1 23/2/1
f 26/2/1 24/2/1 25/2/1
f 29/2/1 28/2/1 27/2/1
f 30/2/1 28/2/1 29/2/1
f 37/2/1 32/2/1 31/2/1
f 38/2/1 32/2/1 37/2/1
f 40/2/1 34/2/1 33/2/1
f 41/2/1 34/2/1 40/2/1
f 42/2/1 36/2/1 35/2/1
f 43/2/1 36/2/1 42/2/1
f 44/2/1 39/2/1 38/2/1
f 45/2/1 39/2/1 44/2/1
f 46/2/1 42/2/1 41/2/1
f 47/2/1 42/2/1 46/2/1
f 50/1/1 49/1/1 48/1/1
f 51/1/1 49/1/1 50/1/1
f 54/2/1 53/2/1 52/2/1
f 55/2/1 53/2/1 54/2/1
f 60/2/1 57/2/1 56/2/1
f 61/2/1 57/2/1 60/2/1
f 62/2/1 59/2/1 58/2/1
f 63/2/1 59/2/1 62/2/1
f 70/2/1 65/2/1 64/2/1
f 71/2/1 65/2/1 70/2/1
f 72/2/1 67/2/1 66/2/1
f 73/2/1 67/2/1 72/2/1
f 74/2/1 69/2/1 68/2/1
f 75/2/1 69/2/1 74/2/1
f 78/2/1 77/2/1 76/2/1
f 79/2/1 77/2/1 78/2/1
f 82/2/1 81/2/1 80/2/1
f 83/2/1 81/2/1 82/2/1
f 88/2/1 85/2/1 84/2/1
f 89/2/1 85/2/1 88/2/1
f 90/2/1 87/2/1 86/2/1
f 91/2/1 87/2/1 90/2/1
f 95/2/1 93/2/1 92/2/1
f 96/2/1 95/2/1 94/2/1
f 97/2/1 93/2/1 95/2/1
f 97/2/1 95/2/1 96/2/1
f 98/2/2 99/2/2 101/2/2
f 100/2/2 101/2/2 102/2/2
f 101/2/2 99/2/2 103/2/2
f 102/2/2 101/2/2 103/2/2
f 104/2/2 105/2/2 108/2/2
f 108/2/2 105/2/2 109/2/2
f 106/2/2 107/2/2 110/2/2
f 110/2/2 107/2/2 111/2/2
f 112/2/2 113/2/2 118/2/2
f 118/2/2 113/2/2 119/2/2
f 114/2/2 115/2/2 120/2/2
f 120/2/2 115/2/2 121/2/2
f 116/2/2 117/2/2 122/2/2
f 122/2/2 117/2/2 123/2/2
f 124/2/2 125/2/2 126/2/2
f 126/2/2 125/2/2 127/2/2
f 128/2/2 129/2/2 130/2/2
f 130/2/2 129/2/2 131/2/2
f 132/1/2 133/1/2 134/1/2
f 134/1/2 133/1/2 135/1/2
f 136/2/2 137/2/2 142/2/2
f 142/2/2 137/2/2 143/2/2
f 138/2/2 139/2/2 144/2/2
f 144/2/2 139/2/2 145/2/2
f 140/2/2 141/2/2 146/2/2
f 146/2/2 141/2/2 147/2/2
f 143/2/2 144/2/2 148/2/2
f 148/2/2 144/2/2 149/2/2
f 145/2/2 146/2/2 150/2/2
f 150/2/2 146/2/2 151/2/2
f 152/2/2 153/2/2 154/2/2
f 154/2/2 153/2/2 155/2/2
f 156/2/2 157/2/2 160/2/2
f 160/2/2 157/2/2 161/2/2
f 158/2/2 159/2/2 162/2/2
f 162/2/2 159/2/2 163/2/2
f 164/2/2 165/2/2 166/2/2
f 166/2/2 165/2/2 167/2/2
f 168/2/2 169/2/2 170/2/2
f 170/2/2 169/2/2 171/2/2
f 172/2/2 173/2/2 178/2/2
f 174/2/2 175/2/2 179/2/2
f 179/2/2 175/2/2 180/2/2
f 176/2/2 177/2/2 181/2/2
f 179/2/2 180/2/2 182/2/2
f 180/2/2 181/2/2 182/2/2
f 178/2/2 179/2/2 182/2/2
f 181/2/2 177/2/2 183/2/2
f 182/2/2 181/2/2 183/2/2
f 178/2/2 182/2/2 184/2/2
f 172/2/2 178/2/2 186/2/2
f 184/2/2 185/2/2 186/2/2
f 178/2/2 184/2/2 186/2/2
f 186/2/2 185/2/2 187/2/2
f 188/2/2 189/2/2 191/2/2
f 190/2/2 191/2/2 192/2/2
f 191/2/2 189/2/2 193/2/2
f 192/2/2 191/2/2 193/2/2
f 196/2/3 195/2/3 194/2/3
f 198/2/3 196/2/3 194/2/3
f 198/2/3 197/2/3 196/2/3
f 199/2/3 197/2/3 198/2/3
f 201/2/3 197/2/3 199/2/3
f 202/2/3 197/2/3 201/2/3
f 204/2/3 201/2/3 200/2/3
f 204/2/3 203/2/3 202/2/3
f 204/2/3 202/2/3 201/2/3
f 205/2/3 203/2/3 204/2/3
f 206/2/3 203/2/3 205/2/3
f 207/2/3 203/2/3 206/2/3
f 209/2/3 206/2/3 205/2/3
f 210/2/3 206/2/3 209/2/3
f 210/2/3 209/2/3 208/2/3
f 211/2/3 206/2/3 210/2/3
f 212/2/3 210/2/3 208/2/3
f 213/2/3 210/2/3 212/2/3
f 216/2/3 215/2/3 214/2/3
f 217/2/3 215/2/3 216/2/3
f 220/2/3 219/2/3 218/2/3
f 221/2/3 219/2/3 220/2/3
f 224/2/3 223/2/3 222/2/3
f 226/2/3 224/2/3 222/2/3
f 226/2/3 225/2/3 224/2/3
f 227/2/3 225/2/3 226/2/3
f 228/2/3 226/2/3 222/2/3
f 229/2/3 226/2/3 228/2/3
f 232/2/3 230/2/3 229/2/3
f 233/2/3 230/2/3 232/2/3
f 233/2/3 232/2/3 231/2/3
f 234/2/3 230/2/3 233/2/3
f 235/2/3 233/2/3 231/2/3
f 236/2/3 233/2/3 235/2/3
f 239/2/3 238/2/3 237/2/3
f 240/2/3 238/2/3 239/2/3
f 243/2/3 242/2/3 241/2/3
f 244/2/3 242/2/3 243/2/3
f 247/2/3 246/2/3 245/2/3
f 249/2/3 247/2/3 245/2/3
f 249/2/3 248/2/3 247/2/3
f 250/2/3 248/2/3 249/2/3
f 252/2/3 248/2/3 250/2/3
f 253/2/3 248/2/3 252/2/3
f 254/2/3 252/2/3 251/2/3
f 255/2/3 252/2/3 254/2/3
f 258/2/3 256/2/3 255/2/3
f 259/2/3 256/2/3 258/2/3
f 259/2/3 258/2/3 257/2/3
f 260/2/3 256/2/3 259/2/3
f 261/2/3 259/2/3 257/2/3
f 262/2/3 259/2/3 261/2/3
f 265/2/3 264/2/3 263/2/3
f 266/2/3 264/2/3 265/2/3
f 269/2/3 268/2/3 267/2/3
f 270/2/3 268/2/3 269/2/3
f 271/2/4 272/2/4 273/2/4
f 271/2/4 273/2/4 275/2/4
f 273/2/4 274/2/4 275/2/4
f 275/2/4 274/2/4 276/2/4
f 276/2/4 274/2/4 278/2/4
f 278/2/4 274/2/4 279/2/4
f 277/2/4 278/2/4 280/2/4
f 280/2/4 278/2/4 281/2/4
f 281/2/4 282/2/4 284/2/4
f 284/2/4 282/2/4 285/2/4
f 283/2/4 284/2/4 285/2/4
f 285/2/4 282/2/4 286/2/4
f 283/2/4 285/2/4 287/2/4
f 287/2/4 285/2/4 288/2/4
f 289/2/4 290/2/4 291/2/4
f 291/2/4 290/2/4 292/2/4
f 293/2/4 294/2/4 295/2/4
f 293/2/4 295/2/4 297/2/4
f 295/2/4 296/2/4 297/2/4
f 297/2/4 296/2/4 298/2/4
f 298/2/4 296/2/4 300/2/4
f 300/2/4 296/2/4 301/2/4
f 299/2/4 300/2/4 302/2/4
f 302/2/4 300/2/4 303/2/4
f 303/2/4 304/2/4 306/2/4
f 306/2/4 304/2/4 307/2/4
f 305/2/4 306/2/4 307/2/4
f 307/2/4 304/2/4 308/2/4
f 305/2/4 307/2/4 309/2/4
f 309/2/4 307/2/4 310/2/4
f 311/3/4 312/3/4 317/3/4
f 317/3/4 312/3/4 318/3/4
f 313/3/4 314/3/4 319/3/4
f 319/3/4 314/3/4 320/3/4
f 315/2/4 316/2/4 321/2/4
f 321/2/4 316/2/4 322/2/4
f 318/3/4 312/3/4 324/3/4
f 323/3/4 324/3/4 329/3/4
f 324/3/4 312/3/4 330/3/4
f 329/3/4 324/3/4 330/3/4
f 325/3/4 326/3/4 331/3/4
f 331/3/4 326/3/4 332/3/4
f 327/2/4 328/2/4 333/2/4
f 333/2/4 328/2/4 334/2/4
f 335/2/4 336/2/4 339/2/4
f 337/2/4 338/2/4 339/2/4
f 336/2/4 337/2/4 339/2/4
f 335/2/4 339/2/4 341/2/4
f 339/2/4 340/2/4 341/2/4
f 341/2/4 340/2/4 342/2/4
f 342/2/4 340/2/4 343/2/4
f 343/2/4 340/2/4 344/2/4
f 344/2/4 340/2/4 345/2/4
f 345/2/4 340/2/4 346/2/4
f 342/2/4 343/2/4 348/2/4
f 348/2/4 343/2/4 349/2/4
f 344/2/4 345/2/4 351/2/4
f 346/2/4 340/2/4 352/2/4
f 352/2/4 340/2/4 353/2/4
f 349/1/4 350/1/4 355/1/4
f 347/2/4 348/2/4 355/2/4
f 348/2/4 349/2/4 355/2/4
f 355/1/4 350/1/4 356/1/4
f 347/2/4 355/2/4 357/2/4
f 357/2/4 355/2/4 358/2/4
f 344/2/4 351/2/4 359/2/4
f 353/2/4 354/2/4 359/2/4
f 352/2/4 353/2/4 359/2/4
f 351/2/4 352/2/4 359/2/4
f 359/2/4 354/2/4 360/2/4
f 360/2/4 354/2/4 361/2/4
f 361/2/4 354/2/4 362/2/4
f 358/2/4 355/2/4 364/2/4
f 364/2/4 355/2/4 365/2/4
f 344/2/4 359/2/4 366/2/4
f 366/2/4 359/2/4 367/2/4
f 360/2/4 361/2/4 368/2/4
f 366/2/4 367/2/4 369/2/4
f 367/2/4 368/2/4 369/2/4
f 368/2/4 361/2/4 369/2/4
f 364/2/4 365/2/4 369/2/4
f 365/2/4 366/2/4 369/2/4
f 363/2/4 364/2/4 369/2/4
f 369/2/4 361/2/4 370/2/4
f 363/2/4 369/2/4 371/2/4
f 371/2/4 369/2/4 372/2/4
f 372/2/4 369/2/4 373/2/4
f 373/2/4 369/2/4 374/2/4
f 375/2/4 376/2/4 377/2/4
f 377/2/4 376/2/4 378/2/4
f 379/2/4 380/2/4 381/2/4
f 381/2/4 380/2/4 382/2/4
f 389/2/5 384/2/5 383/2/5
f 390/2/5 384/2/5 389/2/5
f 391/2/5 386/2/5 385/2/5
f 392/2/5 386/2/5 391/2/5
f 393/2/5 388/2/5 387/2/5
f 394/2/5 388/2/5 393/2/5
f 399/2/5 396/2/5 395/2/5
f 400/2/5 396/2/5 399/2/5
f 401/2/5 399/2/5 395/2/5
f 402/2/5 399/2/5 401/2/5
f 403/2/5 396/2/5 400/2/5
f 404/2/5 396/2/5 403/2/5
f 405/2/5 398/2/5 397/2/5
f 406/2/5 398/2/5 405/2/5
f 413/2/5 408/2/5 407/2/5
f 414/2/5 408/2/5 413/2/5
f 415/2/5 410/2/5 409/2/5
f 416/2/5 410/2/5 415/2/5
f 417/2/5 412/2/5 411/2/5
f 418/2/5 412/2/5 417/2/5
f 425/2/5 420/2/5 419/2/5
f 426/2/5 420/2/5 425/2/5
f 427/2/5 422/2/5 421/2/5
f 428/2/5 422/2/5 427/2/5
f 431/2/5 424/2/5 423/2/5
f 432/2/5 424/2/5 431/2/5
f 433/2/5 427/2/5 426/2/5
f 434/2/5 427/2/5 433/2/5
f 436/2/5 430/2/5 429/2/5
f 437/2/5 430/2/5 436/2/5
f 442/2/5 439/2/5 438/2/5
f 443/2/5 439/2/5 442/2/5
f 444/2/5 435/2/5 434/2/5
f 445/2/5 435/2/5 444/2/5
f 448/2/5 441/2/5 440/2/5
f 449/2/5 441/2/5 448/2/5
f 451/2/5 444/2/5 443/2/5
f 452/2/5 444/2/5 451/2/5
f 454/2/5 447/2/5 446/2/5
f 455/2/5 447/2/5 454/2/5
f 456/2/5 451/2/5 450/2/5
f 457/2/5 451/2/5 456/2/5
f 458/2/5 453/2/5 452/2/5
f 459/2/5 453/2/5 458/2/5
f 464/2/5 461/2/5 460/2/5
f 465/2/5 461/2/5 464/2/5
f 466/2/5 463/2/5 462/2/5
f 467/2/5 463/2/5 466/2/5
f 472/2/5 469/2/5 468/2/5
f 473/2/5 469/2/5 472/2/5
f 474/2/5 471/2/5 470/2/5
f 475/2/5 471/2/5 474/2/5
f 480/2/5 477/2/5 476/2/5
f 481/2/5 477/2/5 480/2/5
f 482/2/5 479/2/5 478/2/5
f 483/2/5 479/2/5 482/2/5
f 488/2/5 485/2/5 484/2/5
f 489/2/5 487/2/5 486/2/5
f 490/2/5 488/2/5 484/2/5
f 491/2/5 488/2/5 490/2/5
f 492/2/5 487/2/5 489/2/5
f 493/2/5 487/2/5 492/2/5
f 496/2/5 495/2/5 494/2/5
f 497/2/5 495/2/5 496/2/5
f 502/2/5 499/2/5 498/2/5
f 503/2/5 499/2/5 502/2/5
f 504/2/5 501/2/5 500/2/5
f 505/2/5 501/2/5 504/2/5
f 506/2/6 507/2/6 510/2/6
f 510/2/6 507/2/6 511/2/6
f 508/2/6 509/2/6 512/2/6
f 512/2/6 509/2/6 513/2/6
f 514/1/6 515/1/6 516/1/6
f 516/1/6 515/1/6 517/1/6
f 518/2/6 519/2/6 526/2/6
f 522/2/6 523/2/6 527/2/6
f 527/2/6 523/2/6 528/2/6
f 524/2/6 525/2/6 529/2/6
f 529/2/6 525/2/6 530/2/6
f 520/2/6 521/2/6 531/2/6
f 518/2/6 526/2/6 532/2/6
f 532/2/6 526/2/6 533/2/6
f 531/2/6 521/2/6 534/2/6
f 534/2/6 521/2/6 535/2/6
f 536/2/6 537/2/6 540/2/6
f 540/2/6 537/2/6 541/2/6
f 538/2/6 539/2/6 542/2/6
f 542/2/6 539/2/6 543/2/6
f 544/2/6 545/2/6 548/2/6
f 548/2/6 545/2/6 549/2/6
f 546/2/6 547/2/6 550/2/6
f 550/2/6 547/2/6 551/2/6
f 544/2/6 548/2/6 552/2/6
f 551/2/6 547/2/6 555/2/6
f 552/2/6 553/2/6 556/2/6
f 544/2/6 552/2/6 556/2/6
f 556/2/6 553/2/6 557/2/6
f 554/2/6 555/2/6 558/2/6
f 555/2/6 547/2/6 559/2/6
f 558/2/6 555/2/6 559/2/6
f 560/2/6 561/2/6 563/2/6
f 563/2/6 561/2/6 564/2/6
f 562/2/6 563/2/6 566/2/6
f 564/2/6 565/2/6 566/2/6
f 563/2/6 564/2/6 566/2/6
f 566/2/6 565/2/6 567/2/6
f 567/2/6 565/2/6 568/2/6
f 568/2/6 565/2/6 569/2/6
f 567/2/6 568/2/6 570/2/6
f 570/2/6 568/2/6 571/2/6
